# xmcd CD database file
#
# Track frame offsets:
#	150
#	19588
#	42770
#	58779
#	79770
#	106673
#	127465
#	150177
#	176306
#	196555
#	216349
#
# Disc length: 3135 seconds
#
# Revision: 2
# Processed by: cddbd v1.5.2PL0 Copyright (c) Steve Scherf et al.
# Submitted via: CDex 1.70beta2
#
DISCID=830c3d0b
DTITLE=Ed Smith - Relaxing Sax
DYEAR=2007
DGENRE=Jazz
TTITLE0=Just Say...
TTITLE1=Warm Breeze
TTITLE2=Pacific Coast Highway
TTITLE3=A Soothing Sound
TTITLE4=Lost Horizon
TTITLE5=A Time To Reflect
TTITLE6=Just You And Me
TTITLE7=Another Time
TTITLE8=Eclipse
TTITLE9=Night Lights
TTITLE10=Moonshadows
EXTD=YEAR: 2007
EXTT0=
EXTT1=
EXTT2=
EXTT3=
EXTT4=
EXTT5=
EXTT6=
EXTT7=
EXTT8=
EXTT9=
EXTT10=
PLAYORDER=
